<svg width="19" height="18" viewBox="0 0 19 18" fill="none" xmlns="http://www.w3.org/2000/svg">
<path d="M18.1633 15.771C18.1633 15.771 17.0047 16.909 16.7207 17.2426C16.2582 17.7362 15.7132 17.9693 14.9988 17.9693C14.9301 17.9693 14.8568 17.9693 14.7881 17.9647C13.4279 17.8779 12.1639 17.3477 11.2159 16.8953C8.62382 15.643 6.34771 13.8651 4.45629 11.6119C2.89461 9.73353 1.85044 7.9968 1.15891 6.13211C0.732997 4.99409 0.577287 4.10744 0.645983 3.27107C0.691779 2.73634 0.897866 2.29302 1.27798 1.91368L2.83966 0.355195C3.06406 0.144959 3.30221 0.0307007 3.53577 0.0307007C3.82429 0.0307007 4.05786 0.204374 4.20441 0.350625C4.20899 0.355195 4.21357 0.359765 4.21815 0.364336C4.49751 0.624845 4.76313 0.894495 5.04249 1.18243C5.18446 1.32868 5.33101 1.47493 5.47756 1.62575L6.72782 2.87345C7.21327 3.35791 7.21327 3.8058 6.72782 4.29026C6.59501 4.4228 6.46678 4.55534 6.33397 4.68331C5.94927 5.07636 6.25147 4.77477 5.85304 5.13126C5.84388 5.1404 5.83472 5.14497 5.83014 5.15411C5.43629 5.54716 5.50956 5.93107 5.592 6.19158C5.59658 6.20529 5.60116 6.219 5.60573 6.23271C5.93089 7.01881 6.38886 7.7592 7.08498 8.64128L7.08956 8.64585C8.35355 10.1998 9.68625 11.4109 11.1563 12.3387C11.3441 12.4575 11.5364 12.5535 11.7196 12.6449C11.8845 12.7272 12.0402 12.8049 12.173 12.8871C12.1913 12.8963 12.2097 12.91 12.228 12.9191C12.3837 12.9968 12.5302 13.0334 12.6814 13.0334C13.0615 13.0334 13.2996 12.7957 13.3775 12.718L14.2752 11.8222C14.4309 11.6668 14.6782 11.4794 14.9667 11.4794C15.2506 11.4794 15.4842 11.6576 15.6262 11.813C15.6308 11.8176 15.6308 11.8176 15.6353 11.8222L18.1587 14.3404C18.6305 14.8066 18.1633 15.771 18.1633 15.771Z" fill="white"/>
</svg>
