<svg width="24" height="25" viewBox="0 0 24 25" fill="none" xmlns="http://www.w3.org/2000/svg">
<path d="M15.1474 13.6678V4.35386L10.8079 3.77606L10.6593 8.09939L9.07038 7.01703L7.48143 7.91425L7.80899 3.39358L5.37572 3.0823V12.559L15.1474 13.6678Z" fill="#2F50C1"/>
<path d="M19.3161 24.2696V14.9557L14.9766 14.3779L14.828 18.7012L13.2391 17.6188L11.6501 18.5161L11.9777 13.9954L9.72753 13.7757V23.2524L19.3161 24.2696Z" fill="#2F50C1"/>
<path d="M5.81111 13.3037L5.66666 17.5212L4.07771 16.4388L2.48876 17.336L2.81631 12.8154L0.566152 12.5061V21.9829L8.85472 22.9248V13.6414L5.81111 13.3037Z" fill="#2F50C1"/>
<path d="M19.8105 11.9873L16.6123 13.8957L19.7882 14.3006L22.8297 12.3841L19.8105 11.9873Z" fill="#2F50C1"/>
<path d="M20.191 15.0432V24.0479L23.6191 22.0032L23.552 12.9252L20.191 15.0432Z" fill="#2F50C1"/>
<path d="M4.68806 11.32V10.437L1.29451 11.9283L3.24153 12.1765L4.68806 11.32Z" fill="#2F50C1"/>
<path d="M16.0223 4.44135V13.4461L19.0761 11.6232L19.4484 11.3078L19.3833 2.32343L16.0223 4.44135Z" fill="#2F50C1"/>
<path d="M14.6164 1.25124L11.2799 3.14537L15.6195 3.69875L18.661 1.78225L14.6164 1.25124Z" fill="#2F50C1"/>
<path d="M8.23624 2.75474L11.4711 0.836205L10.405 0.695824L6.28921 2.5045L8.23624 2.75474Z" fill="#2F50C1"/>
</svg>
